<svg width="184" height="52" viewBox="0 0 184 52" fill="none" xmlns="http://www.w3.org/2000/svg">
<path fill-rule="evenodd" clip-rule="evenodd" d="M152.051 33.9063C155.663 33.9063 158.521 29.7609 158.521 24.6602V12.332H161.422V24.6602C161.422 31.4406 157.244 36.9113 152.109 36.9113C146.974 36.9113 142.797 31.4406 142.797 24.6602V12.332H145.698V24.6602C145.582 29.838 148.439 33.9833 152.037 33.9833L152.051 33.9063ZM82.1792 37.0952H79.2781V34.8915C77.4073 36.2828 75.1795 37.0305 72.8959 37.0336C67.5292 37.0717 62.8381 33.1953 61.5521 27.6598C60.2661 22.1244 62.7207 16.3742 67.4878 13.7552C72.2548 11.1362 78.0904 12.3316 81.599 16.6459L79.4667 18.6646C76.7991 15.4961 72.4416 14.6683 68.9057 16.6583C65.3698 18.6482 63.5667 22.9432 64.5357 27.0677C65.5047 31.1923 68.996 34.0834 72.9974 34.0748C75.4367 34.0802 77.7569 32.9546 79.3507 30.9928H71.5179V27.9107H82.2082L82.1792 37.0952ZM33.1081 12.5312H30.207V37.0642H41.8112V33.9822H33.1081V12.5312ZM50.8496 31.0235C55.6562 31.0235 59.5527 26.8838 59.5527 21.7774C59.5527 16.6709 55.6562 12.5312 50.8496 12.5312C48.5414 12.5312 46.3277 13.5054 44.6956 15.2394C43.0634 16.9734 42.1465 19.3251 42.1465 21.7774C42.1465 26.8838 46.043 31.0235 50.8496 31.0235ZM50.849 27.9434C54.0534 27.9434 56.651 25.1836 56.651 21.7793C56.651 18.375 54.0534 15.6152 50.849 15.6152C47.6446 15.6152 45.0469 18.375 45.0469 21.7793C45.0628 25.1716 47.6559 27.9126 50.849 27.9126V27.9434ZM56.651 37.0977V34.0156H45.0469V37.0977H56.651ZM101.559 21.839C101.559 16.7326 97.6623 12.5929 92.8557 12.5929L92.8847 12.5313C90.5614 12.523 88.3314 13.502 86.6912 15.2502C85.0511 16.9985 84.137 19.3708 84.1525 21.839C84.1525 26.9455 88.0491 31.0851 92.8557 31.0851C97.6623 31.0851 101.559 26.9455 101.559 21.839ZM92.8548 28.0039C96.0592 28.0039 98.6569 25.2442 98.6569 21.8399C98.6569 18.4355 96.0592 15.6758 92.8548 15.6758C89.6504 15.6758 87.0527 18.4355 87.0527 21.8399C87.1004 25.22 89.7018 27.9287 92.8838 27.9115L92.8548 28.0039ZM98.6569 37.1582V34.0762H87.0527V37.1582H98.6569ZM104.648 12.5312H107.549V37.0334H104.648V12.5312ZM114.467 12.5326H111.566V37.081H114.467V30.917H114.917C118.232 31.299 121.461 29.6353 123.231 26.6332C125.001 23.6311 125.001 19.8185 123.231 16.8164C121.461 13.8143 118.232 12.1506 114.917 12.5326C114.768 12.5158 114.617 12.5158 114.467 12.5326ZM114.468 15.6142V15.6861L114.453 15.6913L114.468 15.6142ZM114.468 15.6861C114.614 15.6347 114.764 15.6003 114.917 15.5834C117.154 15.2669 119.361 16.3574 120.575 18.379C121.789 20.4006 121.789 22.9864 120.575 25.008C119.361 27.0297 117.154 28.1202 114.917 27.8037H114.468V15.6861ZM135.321 14.3434L135.369 14.3031L135.355 14.3802L135.321 14.3434ZM131.279 12.608C132.796 12.5604 134.262 13.1903 135.321 14.3434L133.222 16.1061C132.466 15.2667 131.321 14.9688 130.285 15.3421C129.25 15.7155 128.511 16.6925 128.392 17.8474V18.094C128.392 19.4501 129.277 20.3593 131.003 20.4826C137.646 20.9141 140.693 24.2273 140.693 28.6037V28.8811C140.342 32.4185 138.083 35.414 134.909 36.5477C131.736 37.6814 128.232 36.7451 125.941 34.1514L128.16 32.333C129.206 33.5234 130.691 34.1657 132.222 34.0898C135.124 34.2523 137.632 31.9553 137.908 28.8811V28.6654C137.908 24.5509 134.107 23.7958 130.815 23.4567C127.768 23.1485 125.578 21.1298 125.578 18.2173V18.094C125.801 14.945 128.307 12.5335 131.279 12.608ZM180.785 36.9872H183.686L183.657 12.5312L174.083 25.9227L164.51 12.5312V37.0334H167.411V21.7311L174.098 30.9772L180.785 21.7311V36.9872Z" fill="white"/>
<path fill-rule="evenodd" clip-rule="evenodd" d="M16.2817 8.84798C16.2817 4.2181 12.7488 0.464844 8.39084 0.464844C4.03285 0.464844 0.5 4.2181 0.5 8.84798V34.1977L6.99834 39.1444V51.1951H9.78334V39.1444L16.2817 34.1977V8.84798ZM13.4965 23.0266L9.7832 26.9716V23.2731L13.4965 19.3281V23.0266ZM7.05708 23.2731L3.34375 19.3281V23.0266L7.05708 26.9716V23.2731ZM13.4968 15.1362L8.39099 20.5606L3.28516 15.0129V11.3145L8.39099 16.7388L13.4968 11.3145V15.1362ZM13.3225 7.44502C12.7162 5.07921 10.6987 3.43382 8.39076 3.42297V3.36133C6.06628 3.37969 4.04334 5.05476 3.45898 7.44502L8.39076 12.6691L13.3225 7.44502ZM3.28516 32.702V27.1543L6.99849 31.0993V35.5066L3.28516 32.702ZM9.7832 31.0993V35.522L13.4965 32.6866V27.1543L9.7832 31.0993Z" fill="#A7E628"/>
</svg>
